<?xml version="1.0" encoding="UTF-8" standalone="no"?>
<!DOCTYPE svg PUBLIC "-//W3C//DTD SVG 1.1//EN" "http://www.w3.org/Graphics/SVG/1.1/DTD/svg11.dtd">
<svg width="100%" height="100%" viewBox="0 0 2000 700" version="1.1" xmlns="http://www.w3.org/2000/svg" xmlns:xlink="http://www.w3.org/1999/xlink" xml:space="preserve" xmlns:serif="http://www.serif.com/" style="fill-rule:evenodd;clip-rule:evenodd;">
    <g id="Bg" transform="matrix(0.969671,0,0,0.969747,11.1495,3.93124)">
        <rect x="-11.498" y="-4.054" width="2062.55" height="721.838" style="fill:rgb(0,21,32);"/>
    </g>
    <g transform="matrix(1,0,0,1,1000,350)">
        <g transform="matrix(1,0,0,1,-1000,-350)">
            <g transform="matrix(1,0,0,1,2000,0)">
                <path d="M0,490C-32.5,454.6 -64.9,419.2 -112.1,418.2C-159.2,417.3 -221,450.7 -245,424.4C-269,398 -255.1,311.9 -265.9,265.9C-276.6,219.9 -312,214 -336.9,194.5C-361.8,175 -376.1,141.8 -399.9,107.2C-423.7,72.5 -456.8,36.2 -490,0L0,0L0,490Z" style="fill:rgb(24,42,77);fill-rule:nonzero;"/>
                <path d="M0,326.7C-21.6,303.1 -43.3,279.5 -74.7,278.8C-106.1,278.2 -147.3,300.5 -163.3,282.9C-179.3,265.3 -170.1,207.9 -177.2,177.2C-184.4,146.6 -208,142.7 -224.6,129.7C-241.2,116.7 -250.7,94.6 -266.6,71.4C-282.4,48.3 -304.6,24.2 -326.7,0L0,0L0,326.7Z" style="fill:rgb(159,54,125);fill-rule:nonzero;"/>
                <path d="M0,163.3C-10.8,151.5 -21.6,139.7 -37.4,139.4C-53.1,139.1 -73.7,150.2 -81.7,141.5C-89.7,132.7 -85,104 -88.6,88.6C-92.2,73.3 -104,71.3 -112.3,64.8C-120.6,58.3 -125.4,47.3 -133.3,35.7C-141.2,24.2 -152.3,12.1 -163.3,0L0,0L0,163.3Z" style="fill:rgb(227,54,107);fill-rule:nonzero;"/>
            </g>
            <g transform="matrix(1,0,0,1,0,700)">
                <path d="M0,-490C38.7,-463.4 77.4,-436.7 110.3,-411.5C143.1,-386.2 170,-362.4 200,-346.4C230,-330.4 263,-322.2 310.4,-310.4C357.8,-298.6 419.5,-283.1 424.4,-245C429.2,-206.9 377.2,-146.1 378.6,-101.5C380.1,-56.8 435.1,-28.4 490,0L0,0L0,-490Z" style="fill:rgb(24,42,77);fill-rule:nonzero;"/>
                <path d="M0,-326.7C25.8,-308.9 51.6,-291.1 73.5,-274.3C95.4,-257.5 113.3,-241.6 133.3,-230.9C153.3,-220.3 175.4,-214.8 206.9,-206.9C238.5,-199.1 279.7,-188.8 282.9,-163.3C286.1,-137.9 251.5,-97.4 252.4,-67.6C253.4,-37.9 290,-18.9 326.7,0L0,0L0,-326.7Z" style="fill:rgb(159,54,125);fill-rule:nonzero;"/>
                <path d="M0,-163.3C12.9,-154.5 25.8,-145.6 36.8,-137.2C47.7,-128.7 56.7,-120.8 66.7,-115.5C76.7,-110.1 87.7,-107.4 103.5,-103.5C119.3,-99.5 139.8,-94.4 141.5,-81.7C143.1,-69 125.7,-48.7 126.2,-33.8C126.7,-18.9 145,-9.5 163.3,0L0,0L0,-163.3Z" style="fill:rgb(227,54,107);fill-rule:nonzero;"/>
            </g>
        </g>
    </g>
    <g id="Text" transform="matrix(3.67219,0,0,3.67219,-1014.44,-378.198)">
        <text x="387.46px" y="206.651px" style="font-family:'WorkSansRoman-ExtraBold', 'Work Sans';font-size:34.04px;fill:rgb(229,229,229);">H<tspan x="412.173px 430.997px 447.71px 458.637px " y="206.651px 206.651px 206.651px 206.651px ">ey t</tspan>her<tspan x="526.954px " y="206.651px ">e</tspan>, I&apos;m <tspan x="628.529px 647.182px " y="206.651px 206.651px ">Ja</tspan>ck</text>
    </g>
    <g id="Blobs" transform="matrix(1.54818,0,0,1.63432,1387.18,553.715)">
        <g transform="matrix(1,0,0,1,-1000,-350)">
            <clipPath id="_clip1">
                <rect x="0" y="0" width="2000" height="700"/>
            </clipPath>
            <g clip-path="url(#_clip1)">
                <g>
                    <g transform="matrix(1,0,0,1,1354,363)">
                        <path d="M15.3,-18.9C19.5,-14.8 22.3,-9.6 24.4,-3.5C26.4,2.7 27.8,9.7 26.3,17.8C24.8,25.9 20.4,34.9 12.9,39.4C5.4,43.9 -5.3,43.8 -14.5,40.2C-23.6,36.7 -31.4,29.6 -36.4,21C-41.4,12.3 -43.8,2.1 -41.7,-6.9C-39.6,-16 -33.1,-23.8 -25.4,-27.3C-17.7,-30.7 -8.8,-29.9 -1.6,-27.9C5.6,-26 11.1,-23 15.3,-18.9Z" style="fill:none;fill-rule:nonzero;stroke:rgb(247,15,106);stroke-width:15px;"/>
                    </g>
                    <g transform="matrix(1,0,0,1,343.797,139.366)">
                        <path d="M16.1,-18.6C21.8,-14.3 28.3,-10.2 30.4,-4.4C32.5,1.4 30.4,8.8 26.5,15C22.6,21.2 16.9,26 10,29.3C3.2,32.5 -4.9,34.1 -10,30.8C-15,27.4 -17.1,19.2 -18.9,12.6C-20.8,5.9 -22.6,0.8 -22.7,-5C-22.9,-10.8 -21.5,-17.4 -17.5,-22.1C-13.4,-26.7 -6.7,-29.4 -0.8,-28.5C5.1,-27.5 10.3,-22.9 16.1,-18.6Z" style="fill:none;fill-rule:nonzero;stroke:rgb(247,15,106);stroke-width:15px;"/>
                    </g>
                    <g transform="matrix(1,0,0,1,1092,451)">
                        <path d="M13.7,-16C17,-13.5 18.4,-8.5 19.3,-3.4C20.2,1.7 20.6,6.9 18.2,9.9C15.7,12.8 10.5,13.5 5.7,14.9C0.9,16.3 -3.3,18.4 -7.7,18.1C-12.2,17.8 -16.8,15.1 -19.7,11C-22.5,6.8 -23.5,1.3 -22.1,-3.4C-20.7,-8.1 -16.9,-11.9 -12.8,-14.2C-8.7,-16.6 -4.4,-17.6 0.4,-18C5.2,-18.5 10.4,-18.6 13.7,-16Z" style="fill:none;fill-rule:nonzero;stroke:rgb(247,15,106);stroke-width:15px;"/>
                    </g>
                    <g transform="matrix(1,0,0,1,828,319)">
                        <path d="M20.2,-24.7C24.8,-20.3 26.1,-12.6 25.9,-5.8C25.7,1 23.9,6.9 20.7,11.6C17.6,16.4 13.1,20.1 7.4,23.5C1.8,26.8 -5.1,29.9 -10,28C-14.9,26 -17.7,18.9 -20.3,12.6C-22.8,6.3 -25.1,0.7 -25.1,-5.3C-25.1,-11.4 -22.8,-17.9 -18.2,-22.3C-13.7,-26.7 -6.8,-29.1 0.5,-29.7C7.8,-30.3 15.7,-29.1 20.2,-24.7Z" style="fill:none;fill-rule:nonzero;stroke:rgb(247,15,106);stroke-width:15px;"/>
                    </g>
                    <g transform="matrix(1,0,0,1,669,49)">
                        <path d="M22.4,-24.7C28.7,-21.3 33.5,-14 34.1,-6.6C34.8,0.9 31.4,8.5 26.2,13C21.1,17.5 14.2,18.9 7.9,20.7C1.6,22.5 -4.1,24.7 -8.7,23.3C-13.3,21.9 -16.8,16.8 -19.3,11.6C-21.8,6.4 -23.3,1 -22.8,-4.5C-22.4,-9.9 -20,-15.4 -15.9,-19.2C-11.7,-23 -5.9,-25.1 1.1,-26.4C8,-27.7 16,-28.1 22.4,-24.7Z" style="fill:none;fill-rule:nonzero;stroke:rgb(247,15,106);stroke-width:15px;"/>
                    </g>
                </g>
            </g>
        </g>
    </g>
</svg>
